<svg xmlns="http://www.w3.org/2000/svg" viewBox="0 0 47 47"><defs><style>.cls-1{fill:#4e1b59;}.cls-2{fill:#fff;}</style></defs><g id="Calque_2" data-name="Calque 2"><g id="Calque_1-2" data-name="Calque 1"><rect class="cls-1" width="47" height="47" transform="translate(0 47) rotate(-90)"/><path class="cls-2" d="M37.48,36.49H35.56c-.47,0-.93,0-1.39,0A2.22,2.22,0,0,1,32.82,36,3.36,3.36,0,0,1,32,34.87l-.75-1.39L30.43,32c-.23-.45-.44-.92-.67-1.37s-.46-.83-.67-1.25-.44-.91-.67-1.36S28.1,27.35,28,27s-.36-.75-.54-1.12l-.3-.57-.45-.88-.92-1.76c-.15-.27-.29-.55-.43-.83s-.43-.85-.64-1.27-.59-1.14-.89-1.71l-1.39-2.7-.9-1.72c-.21-.42-.42-.85-.64-1.27l-.91-1.73c-.11-.21-.21-.41-.3-.62a.31.31,0,0,1,.28-.42h6.5a2.39,2.39,0,0,1,1.47.65,3,3,0,0,1,.61.77l.9,1.77.52,1c.23.44.44.89.66,1.32s.46.85.68,1.27l.43.85c.3.59.61,1.17.9,1.75.17.32.33.65.49,1l.53,1c.15.3.29.59.45.88s.32.62.49.93l.49.94c.24.45.49.91.72,1.36s.34.68.51,1c.25.48.51.94.76,1.42l.14.27c.28.55.56,1.11.85,1.66L39,32l.84,1.58.89,1.74c.14.27.28.53.41.8a.27.27,0,0,1-.25.4H37.48Z"/><path class="cls-2" d="M19.43,19.4h3.12a.47.47,0,0,1,.17,0,.31.31,0,0,1,.16.46l-.36.67c-.13.25-.25.49-.39.74s-.32.58-.48.88l-.38.73c-.2.36-.39.72-.58,1.08s-.43.82-.64,1.23l-.57,1.06L19,27.1l-1,1.85-.78,1.53c-.3.56-.59,1.12-.89,1.67s-.44.84-.67,1.26L14.86,35a2.76,2.76,0,0,1-1.66,1.33,3.7,3.7,0,0,1-1,.11l-2.07,0-2.2,0H6.23a.4.4,0,0,1-.38-.25.21.21,0,0,1,0-.24c.15-.27.3-.53.44-.8l.92-1.75c.25-.48.52-1,.77-1.43s.42-.86.64-1.28S9,30,9.23,29.66s.55-.92.79-1.4l.52-1L11.26,26c.22-.42.45-.83.68-1.25s.49-.95.74-1.43c.14-.27.29-.53.43-.79s.33-.65.51-1,.35-.64.54-.94a2.74,2.74,0,0,1,.9-.86,2.38,2.38,0,0,1,1.32-.33c.74,0,1.47,0,2.2,0h.85Z"/><path class="cls-2" d="M23.1,28.4h3.19a2.24,2.24,0,0,1,1.52.65,4.64,4.64,0,0,1,.86,1.25c.21.4.41.81.61,1.21.3.56.59,1.12.88,1.69s.66,1.28,1,1.92l.44.85a.31.31,0,0,1-.3.46H26.83l-1.37,0c-.26,0-.53,0-.79,0a2.19,2.19,0,0,1-1.31-.61A2.68,2.68,0,0,1,22.8,35c-.28-.51-.54-1-.81-1.53-.15-.29-.32-.58-.47-.87s-.3-.56-.45-.84l-.83-1.6-.7-1.34c-.13-.25,0-.43.26-.44h3.3Z"/></g></g></svg>